<svg width="25" height="22" viewBox="0 0 25 22" fill="none" xmlns="http://www.w3.org/2000/svg">
<path fill-rule="evenodd" clip-rule="evenodd" d="M12.0452 0.458991C12.1907 0.604117 12.3061 0.776522 12.3849 0.966329C12.4636 1.15614 12.5042 1.35962 12.5042 1.56512C12.5042 1.77062 12.4636 1.9741 12.3849 2.16391C12.3061 2.35371 12.1907 2.52612 12.0452 2.67124L3.77425 10.9391L12.0452 19.2069C12.1905 19.3522 12.3057 19.5246 12.3843 19.7144C12.4629 19.9042 12.5034 20.1076 12.5034 20.313C12.5034 20.5185 12.4629 20.7219 12.3843 20.9117C12.3057 21.1014 12.1905 21.2739 12.0452 21.4192C11.8999 21.5644 11.7275 21.6796 11.5377 21.7582C11.3479 21.8369 11.1445 21.8773 10.9391 21.8773C10.7336 21.8773 10.5302 21.8369 10.3404 21.7582C10.1506 21.6796 9.9782 21.5644 9.83294 21.4192L0.458992 12.0452C0.313498 11.9001 0.198064 11.7277 0.119303 11.5379C0.0405412 11.3481 0 11.1446 0 10.9391C0 10.7336 0.0405412 10.5301 0.119303 10.3403C0.198064 10.1505 0.313498 9.97807 0.458992 9.83294L9.83294 0.458991C9.97807 0.313497 10.1505 0.198063 10.3403 0.119302C10.5301 0.0405404 10.7336 0 10.9391 0C11.1446 0 11.3481 0.0405404 11.5379 0.119302C11.7277 0.198063 11.9001 0.313497 12.0452 0.458991V0.458991Z" fill="url(#paint0_linear)"/>
<path fill-rule="evenodd" clip-rule="evenodd" d="M1.56509 10.939C1.56509 10.5247 1.7297 10.1273 2.02269 9.83431C2.31568 9.54132 2.71307 9.37672 3.12742 9.37672H23.4377C23.852 9.37672 24.2494 9.54132 24.5424 9.83431C24.8354 10.1273 25 10.5247 25 10.939C25 11.3534 24.8354 11.7508 24.5424 12.0438C24.2494 12.3368 23.852 12.5014 23.4377 12.5014H3.12742C2.71307 12.5014 2.31568 12.3368 2.02269 12.0438C1.7297 11.7508 1.56509 11.3534 1.56509 10.939Z" fill="url(#paint1_linear)"/>
<defs>
<linearGradient id="paint0_linear" x1="6.25209" y1="0" x2="6.25209" y2="21.8773" gradientUnits="userSpaceOnUse">
<stop stop-color="#FFBA35"/>
<stop offset="1" stop-color="#FFBA35"/>
</linearGradient>
<linearGradient id="paint1_linear" x1="13.2825" y1="9.37672" x2="13.2825" y2="12.5014" gradientUnits="userSpaceOnUse">
<stop stop-color="#FFBA35"/>
<stop offset="1" stop-color="#FFBA35"/>
</linearGradient>
</defs>
</svg>
